<svg xmlns="http://www.w3.org/2000/svg" version="1.1" xmlns:xlink="http://www.w3.org/1999/xlink" xmlns:svgjs="http://svgjs.dev/svgjs" width="1000" height="300" preserveAspectRatio="none" viewBox="0 0 1000 300">
    <g mask="url(&quot;#SvgjsMask8220&quot;)" fill="none">
        <rect width="1000" height="300" x="0" y="0" fill="url(&quot;#SvgjsLinearGradient8221&quot;)"></rect>
        <rect width="139.2" height="139.2" clip-path="url(&quot;#SvgjsClipPath8222&quot;)" x="149.59" y="98.21" fill="url(&quot;#SvgjsPattern8223&quot;)" transform="rotate(344.43, 219.19, 167.81)"></rect>
        <path d="M274.8 62.97 L322.90999999999997 9.99L257.36995250491 -5.005047495090068z" fill="#d3b714"></path>
        <path d="M530.37 51.92 L484.04 57.54L535.3384446357658 82.86344463576572z" stroke="#037b0b" stroke-width="1" stroke-dasharray="3, 3"></path>
        <rect width="144" height="144" clip-path="url(&quot;#SvgjsClipPath8224&quot;)" x="-57.36" y="12.47" fill="url(&quot;#SvgjsPattern8225&quot;)" transform="rotate(325.82, 14.64, 84.47)"></rect>
        <rect width="60" height="60" clip-path="url(&quot;#SvgjsClipPath8226&quot;)" x="588.58" y="225.16" fill="url(&quot;#SvgjsPattern8227&quot;)" transform="rotate(327.26, 618.58, 255.16)"></rect>
        <path d="M704.27 315.66 L703.08 285.24L719.9540184897486 284.1709815102514z" stroke="#e73635" stroke-width="2.28" stroke-dasharray="3, 2"></path>
        <rect width="126.96" height="126.96" clip-path="url(&quot;#SvgjsClipPath8228&quot;)" x="685.82" y="143.57" fill="url(&quot;#SvgjsPattern8229&quot;)" transform="rotate(179.99, 749.3, 207.05)"></rect>
        <path d="M256.02 216.6 L239.92999999999998 245.14999999999998L269.8348673451323 252.73486734513233z" fill="#d3b714"></path>
        <rect width="92.64" height="92.64" clip-path="url(&quot;#SvgjsClipPath8230&quot;)" x="745.33" y="1.66" fill="url(&quot;#SvgjsPattern8231&quot;)" transform="rotate(317.78, 791.65, 47.98)"></rect>
        <path d="M240.74 263.18a5.6 5.6 0 1 0-5.77-9.6 5.6 5.6 0 1 0 5.77 9.6zM232.49 249.47a5.6 5.6 0 1 0-5.77-9.6 5.6 5.6 0 1 0 5.77 9.6zM224.24 235.76a5.6 5.6 0 1 0-5.77-9.6 5.6 5.6 0 1 0 5.77 9.6zM215.99 222.05a5.6 5.6 0 1 0-5.77-9.6 5.6 5.6 0 1 0 5.77 9.6zM270.95 282.35a5.6 5.6 0 1 0-5.77-9.6 5.6 5.6 0 1 0 5.77 9.6zM262.7 268.64a5.6 5.6 0 1 0-5.77-9.6 5.6 5.6 0 1 0 5.77 9.6zM254.45 254.93a5.6 5.6 0 1 0-5.77-9.6 5.6 5.6 0 1 0 5.77 9.6zM246.2 241.22a5.6 5.6 0 1 0-5.77-9.6 5.6 5.6 0 1 0 5.77 9.6zM301.16 301.51a5.6 5.6 0 1 0-5.77-9.59 5.6 5.6 0 1 0 5.77 9.59zM292.91 287.8a5.6 5.6 0 1 0-5.77-9.59 5.6 5.6 0 1 0 5.77 9.59zM284.66 274.1a5.6 5.6 0 1 0-5.77-9.6 5.6 5.6 0 1 0 5.77 9.6zM276.41 260.39a5.6 5.6 0 1 0-5.78-9.6 5.6 5.6 0 1 0 5.78 9.6z" stroke="#037b0b" stroke-width="1" stroke-dasharray="3, 2"></path>
        <rect width="96" height="96" clip-path="url(&quot;#SvgjsClipPath8232&quot;)" x="98.02" y="-30.74" fill="url(&quot;#SvgjsPattern8233&quot;)" transform="rotate(342.88, 146.02, 17.26)"></rect>
        <rect width="156" height="156" clip-path="url(&quot;#SvgjsClipPath8234&quot;)" x="488.27" y="103.68" fill="url(&quot;#SvgjsPattern8235&quot;)" transform="rotate(232.2, 566.27, 181.68)"></rect>
        <path d="M947.13 159.08a5.6 5.6 0 1 0-1.45-11.1 5.6 5.6 0 1 0 1.45 11.1zM945.07 143.22a5.6 5.6 0 1 0-1.45-11.11 5.6 5.6 0 1 0 1.45 11.11zM943.01 127.35a5.6 5.6 0 1 0-1.45-11.11 5.6 5.6 0 1 0 1.45 11.11zM940.95 111.48a5.6 5.6 0 1 0-1.45-11.1 5.6 5.6 0 1 0 1.45 11.1zM967.12 188.76a5.6 5.6 0 1 0-1.45-11.11 5.6 5.6 0 1 0 1.45 11.11zM965.05 172.89a5.6 5.6 0 1 0-1.44-11.11 5.6 5.6 0 1 0 1.44 11.11zM962.99 157.02a5.6 5.6 0 1 0-1.44-11.1 5.6 5.6 0 1 0 1.44 11.1zM960.93 141.16a5.6 5.6 0 1 0-1.44-11.11 5.6 5.6 0 1 0 1.44 11.11z" stroke="#d3b714" stroke-width="1.59" stroke-dasharray="3, 3"></path>
        <path d="M423.66 273.28000000000003 L461.01 301.36L424.0344553005363 305.6205446994638z" stroke="#d3b714" stroke-width="2.59" stroke-dasharray="3, 3"></path>
        <rect width="156" height="156" clip-path="url(&quot;#SvgjsClipPath8236&quot;)" x="354.56" y="186.88" fill="url(&quot;#SvgjsPattern8237&quot;)" transform="rotate(257.91, 432.56, 264.88)"></rect>
    </g>
    <defs>
        <mask id="SvgjsMask8220">
            <rect width="1000" height="300" fill="#ffffff"></rect>
        </mask>
        <linearGradient x1="17.5%" y1="-58.33%" x2="82.5%" y2="158.33%" gradientUnits="userSpaceOnUse" id="SvgjsLinearGradient8221">
            <stop stop-color="rgba(0, 69, 158, 0)" offset="0.48"></stop>
            <stop stop-color="rgba(116, 166, 218, 0)" offset="0.94"></stop>
        </linearGradient>
        <pattern x="0" y="0" width="13.92" height="13.92" patternUnits="userSpaceOnUse" id="SvgjsPattern8223">
            <path d="M0 13.92L6.96 0L13.92 13.92" stroke="#d3b714" fill="none"></path>
        </pattern>
        <clipPath id="SvgjsClipPath8222">
            <circle r="34.8" cx="219.19" cy="167.81"></circle>
        </clipPath>
        <pattern x="0" y="0" width="6" height="6" patternUnits="userSpaceOnUse" id="SvgjsPattern8225">
            <path d="M3 1L3 5M1 3L5 3" stroke="#037b0b" fill="none" stroke-width="1.88"></path>
        </pattern>
        <clipPath id="SvgjsClipPath8224">
            <circle r="36" cx="14.64" cy="84.47"></circle>
        </clipPath>
        <pattern x="0" y="0" width="60" height="6" patternUnits="userSpaceOnUse" id="SvgjsPattern8227">
            <rect width="60" height="3" x="0" y="0" fill="#e73635"></rect>
            <rect width="60" height="3" x="0" y="3" fill="rgba(0, 0, 0, 0)"></rect>
        </pattern>
        <clipPath id="SvgjsClipPath8226">
            <circle r="15" cx="618.58" cy="255.16"></circle>
        </clipPath>
        <pattern x="0" y="0" width="10.58" height="10.58" patternUnits="userSpaceOnUse" id="SvgjsPattern8229">
            <path d="M5.29 1L5.29 9.58M1 5.29L9.58 5.29" stroke="#e73635" fill="none" stroke-width="1.12"></path>
        </pattern>
        <clipPath id="SvgjsClipPath8228">
            <circle r="31.74" cx="749.3" cy="207.05"></circle>
        </clipPath>
        <pattern x="0" y="0" width="7.72" height="7.72" patternUnits="userSpaceOnUse" id="SvgjsPattern8231">
            <path d="M3.86 1L3.86 6.72M1 3.86L6.72 3.86" stroke="#e73635" fill="none" stroke-width="2.56"></path>
        </pattern>
        <clipPath id="SvgjsClipPath8230">
            <circle r="23.16" cx="791.65" cy="47.98"></circle>
        </clipPath>
        <pattern x="0" y="0" width="6" height="6" patternUnits="userSpaceOnUse" id="SvgjsPattern8233">
            <path d="M3 1L3 5M1 3L5 3" stroke="#037b0b" fill="none" stroke-width="1.14"></path>
        </pattern>
        <clipPath id="SvgjsClipPath8232">
            <circle r="24" cx="146.02" cy="17.26"></circle>
        </clipPath>
        <pattern x="0" y="0" width="6" height="6" patternUnits="userSpaceOnUse" id="SvgjsPattern8235">
            <path d="M3 1L3 5M1 3L5 3" stroke="#d3b714" fill="none" stroke-width="1"></path>
        </pattern>
        <clipPath id="SvgjsClipPath8234">
            <circle r="39" cx="566.27" cy="181.68"></circle>
        </clipPath>
        <pattern x="0" y="0" width="6" height="6" patternUnits="userSpaceOnUse" id="SvgjsPattern8237">
            <path d="M3 1L3 5M1 3L5 3" stroke="#e73635" fill="none" stroke-width="1"></path>
        </pattern>
        <clipPath id="SvgjsClipPath8236">
            <circle r="39" cx="432.56" cy="264.88"></circle>
        </clipPath>
    </defs>
</svg>